<?xml version="1.0" encoding="utf-8"?>
<!-- Generator: Adobe Illustrator 16.0.0, SVG Export Plug-In . SVG Version: 6.00 Build 0)  -->
<!DOCTYPE svg PUBLIC "-//W3C//DTD SVG 1.1//EN" "http://www.w3.org/Graphics/SVG/1.1/DTD/svg11.dtd">
<svg version="1.1" xmlns="http://www.w3.org/2000/svg" xmlns:xlink="http://www.w3.org/1999/xlink" x="0px" y="0px" width="424px"
	 height="275.723px" viewBox="0 0 424 275.723" enable-background="new 0 0 424 275.723" xml:space="preserve">
<g id="Layer_1">
</g>
<g id="Layer_2">
	<g>
		<g>
			<line fill="none" stroke="#FF9357" stroke-width="2" stroke-miterlimit="10" x1="237" y1="196.5" x2="286" y2="196.5"/>
			<g>
				<path fill="#FF9357" d="M231.711,196.62c2.271,0.843,5.091,2.281,6.838,3.805l-1.376-3.805l1.376-3.804
					C236.802,194.34,233.982,195.778,231.711,196.62z"/>
			</g>
			<g>
				<path fill="#FF9357" d="M291.315,196.62c-2.272,0.843-5.091,2.281-6.838,3.805l1.376-3.805l-1.376-3.804
					C286.225,194.34,289.043,195.778,291.315,196.62z"/>
			</g>
		</g>
	</g>
	<g>
		<g>
			<line fill="none" stroke="#FF9357" stroke-width="2" stroke-miterlimit="10" x1="116" y1="196.5" x2="165" y2="196.5"/>
			<g>
				<path fill="#FF9357" d="M110.711,196.62c2.271,0.843,5.091,2.281,6.838,3.805l-1.376-3.805l1.376-3.804
					C115.802,194.34,112.982,195.778,110.711,196.62z"/>
			</g>
			<g>
				<path fill="#FF9357" d="M170.315,196.62c-2.272,0.843-5.091,2.281-6.838,3.805l1.376-3.805l-1.376-3.804
					C165.225,194.34,168.043,195.778,170.315,196.62z"/>
			</g>
		</g>
	</g>
	<g>
		<path fill="#FFFFFF" d="M347.991,72.009c-2.471-5.87-7.036-10.269-12.636-12.759c-2.889-1.28-6.044-1.75-9.324-1.75H75.981
			c-3.3,0-6.47,0.459-9.37,1.75c-5.6,2.49-10.151,7.015-12.62,12.884C52.71,75.174,52,78.429,52,81.999v108
			c0,3.23,0.71,6.31,1.991,9.09c2.189,4.8,6.005,8.46,10.565,10.661c2.609,1.279,5.455,1.75,8.375,1.75h28.05
			c2.5,0,4.5-0.5,5.88-1.75l0.13,0.004c1.299-1.24,2.009-2.814,2.009-4.755v-17c0-1.45-0.719-2.499-1.788-3.499H107v-0.731
			c-1-1.069-2.568-1.269-4.019-1.269h-9c-6,0-11.981-6.501-11.981-12.501v-56c0-8,6.981-14.499,13.981-14.499h209
			c8,0,15.019,6.499,15.019,14.499v56c0,6-6.019,12.501-12.019,12.501h-9c-1.45,0-2.981,0.199-3.981,1.269v0.731h-0.249
			c-1.069,1-1.751,2.049-1.751,3.499v17.08c0,1.91,0.71,3.58,1.991,4.8l0.114-0.129c1.371,1.24,3.336,1.75,5.806,1.75h28.07
			c2.94,0,5.81-0.461,8.43-1.75c4.561-2.201,8.389-5.986,10.58-10.786c1.279-2.78,2.009-5.734,2.009-8.965V81.949
			C350,78.399,349.261,75.039,347.991,72.009z M348,189.999c0,11-9.019,19.501-19.019,19.501h-28c-3,0-5.981-1.501-5.981-4.501v-17
			c0-2,1.981-3.499,3.981-3.499h9c2.78,0,5.31-0.971,7.44-2.25c1.869-1.131,3.438-2.816,4.569-4.686
			c1.279-2.131,2.009-4.785,2.009-7.565v-56.05c0-3.16-0.729-6.02-2.009-8.45c-1.471-2.8-3.706-4.78-6.505-6.25
			c-2.43-1.28-5.295-1.75-8.455-1.75H95.981c-2.86,0-5.52,0.459-7.82,1.75c-2.609,1.46-4.74,3.544-6.17,6.315
			C80.71,108.014,80,110.789,80,113.999v56.06c0,2.761,0.722,5.271,1.991,7.381c1.129,1.869,2.685,3.68,4.554,4.811
			c2.111,1.27,4.616,1.25,7.377,2.25h9.06c2,0,4.019,1.499,4.019,3.499v17c0,3-3.019,4.501-6.019,4.501h-28
			c-10,0-18.981-8.501-18.981-19.501v-108c0-13,9.981-22.499,21.981-22.499h250c12,0,22.019,9.499,22.019,22.499V189.999z"/>
	</g>
	<g>
		<path fill="#FFFFFF" d="M107.212,183.999h-0.23v-0.23C107.071,183.839,107.142,183.909,107.212,183.999z"/>
	</g>
	<path fill="#FFFFFF" d="M294.991,128.959c-0.5-0.78-1.185-1.209-1.966-1.709c-0.91-0.621-1.954-0.75-2.994-0.75h-178.05
		c-1.06,0-2.12,0.119-3.04,0.75c-0.78,0.5-1.45,1.054-1.95,1.834c-0.631,0.92-0.991,1.855-0.991,2.915v16.05
		c0,1.04,0.37,2.08,0.991,2.99c0.5,0.78,1.175,1.711,1.954,2.211c0.91,0.619,1.946,0.25,2.986,1.25h52.05
		c5,0,9.019,3.499,9.019,8.499v44.04c0,1.21,0.36,2.33,0.991,3.27c0.439,0.671,1.015,1,1.685,1.441
		c0.939,0.629,2.056,0.75,3.266,0.75h45.04c1.13,0,2.17-0.121,3-0.75c0.38-0.291,0.719-0.496,1.01-0.876
		c0.629-0.83,1.009-1.745,1.009-2.875v-45c0-5,3.981-8.499,7.981-8.499h53c1.06,0,2.12-0.621,3.04-1.25
		c0.78-0.5,1.47-1.306,1.97-2.086c0.629-0.92,1.009-2.105,1.009-3.165v-16.05C296,130.909,295.61,129.869,294.991,128.959z
		 M295,147.999c0,3-2.019,5.501-5.019,5.501h-53c-1.48,0-2.87,0.1-4.1,0.75c-1.681,0.889-3.031,2.204-3.891,4.074
		c-0.641,1.38-0.991,2.875-0.991,4.675v45c0,2.21-1.809,3.501-4.019,3.501h-45c-2.76,0-4.981-1.741-4.981-4.501v-44.03
		c0-1.77-0.358-3.359-1.009-4.72c-0.891-1.89-2.366-3.11-4.255-3.999c-1.361-0.65-2.955-0.75-4.725-0.75h-52.03
		c-3,0-4.981-2.501-4.981-5.501v-16c0-3,1.981-4.499,4.981-4.499h178c3,0,5.019,1.499,5.019,4.499V147.999z"/>
	<g>
		<path fill="#FFFFFF" d="M294.981,183.769v0.23h-0.23C294.821,183.909,294.892,183.839,294.981,183.769z"/>
	</g>
</g>
</svg>
