<?xml version="1.0" encoding="UTF-8" standalone="no"?>
<!-- Generator: Adobe Illustrator 16.0.0, SVG Export Plug-In . SVG Version: 6.00 Build 0)  -->

<svg
   xmlns:dc="http://purl.org/dc/elements/1.1/"
   xmlns:cc="http://creativecommons.org/ns#"
   xmlns:rdf="http://www.w3.org/1999/02/22-rdf-syntax-ns#"
   xmlns:svg="http://www.w3.org/2000/svg"
   xmlns="http://www.w3.org/2000/svg"
   xmlns:sodipodi="http://sodipodi.sourceforge.net/DTD/sodipodi-0.dtd"
   xmlns:inkscape="http://www.inkscape.org/namespaces/inkscape"
   version="1.1"
   x="0px"
   y="0px"
   width="298"
   height="155"
   viewBox="0 0 298 155"
   enable-background="new 0 0 424 275.723"
   xml:space="preserve"
   id="svg4616"
   sodipodi:docname="brake-pad.svg"
   inkscape:version="0.92.1 r15371"><metadata
     id="metadata4622"><rdf:RDF><cc:Work
         rdf:about=""><dc:format>image/svg+xml</dc:format><dc:type
           rdf:resource="http://purl.org/dc/dcmitype/StillImage" /><dc:title></dc:title></cc:Work></rdf:RDF></metadata><defs
     id="defs4620" /><sodipodi:namedview
     pagecolor="#ffffff"
     bordercolor="#666666"
     borderopacity="1"
     objecttolerance="10"
     gridtolerance="10"
     guidetolerance="10"
     inkscape:pageopacity="0"
     inkscape:pageshadow="2"
     inkscape:window-width="1920"
     inkscape:window-height="1050"
     id="namedview4618"
     showgrid="false"
     fit-margin-top="0"
     fit-margin-left="0"
     fit-margin-right="0"
     fit-margin-bottom="0"
     inkscape:zoom="3.1863208"
     inkscape:cx="160"
     inkscape:cy="87.192168"
     inkscape:window-x="0"
     inkscape:window-y="30"
     inkscape:window-maximized="1"
     inkscape:current-layer="g4583" /><g
     id="Layer_1"
     transform="translate(-52,-57.5)" /><g
     id="Layer_2"
     transform="translate(-52,-57.5)"><g
       id="g4585"><g
         id="g4583"><line
           stroke-miterlimit="10"
           x1="237"
           y1="196.5"
           x2="286"
           y2="196.5"
           id="line4573"
           style="fill:none;stroke:#ff9357;stroke-width:2;stroke-miterlimit:10" /><g
           id="g4577"><path
             d="m 231.711,196.62 c 2.271,0.843 5.091,2.281 6.838,3.805 l -1.376,-3.805 1.376,-3.804 c -1.747,1.524 -4.567,2.962 -6.838,3.804 z"
             id="path4575"
             inkscape:connector-curvature="0"
             style="fill:#ff9357" /></g><g
           id="g4581"><path
             d="m 291.315,196.62 c -2.272,0.843 -5.091,2.281 -6.838,3.805 l 1.376,-3.805 -1.376,-3.804 c 1.748,1.524 4.566,2.962 6.838,3.804 z"
             id="path4579"
             inkscape:connector-curvature="0"
             style="fill:#ff9357" /></g></g></g><g
       id="g4599"><g
         id="g4597"><line
           stroke-miterlimit="10"
           x1="116"
           y1="196.5"
           x2="165"
           y2="196.5"
           id="line4587"
           style="fill:none;stroke:#ff9357;stroke-width:2;stroke-miterlimit:10" /><g
           id="g4591"><path
             d="m 110.711,196.62 c 2.271,0.843 5.091,2.281 6.838,3.805 l -1.376,-3.805 1.376,-3.804 c -1.747,1.524 -4.567,2.962 -6.838,3.804 z"
             id="path4589"
             inkscape:connector-curvature="0"
             style="fill:#ff9357" /></g><g
           id="g4595"><path
             d="m 170.315,196.62 c -2.272,0.843 -5.091,2.281 -6.838,3.805 l 1.376,-3.805 -1.376,-3.804 c 1.748,1.524 4.566,2.962 6.838,3.804 z"
             id="path4593"
             inkscape:connector-curvature="0"
             style="fill:#ff9357" /></g></g></g><g
       id="g4603"><path
         d="M 347.991,72.009 C 345.52,66.139 340.955,61.74 335.355,59.25 332.466,57.97 329.311,57.5 326.031,57.5 H 75.981 c -3.3,0 -6.47,0.459 -9.37,1.75 -5.6,2.49 -10.151,7.015 -12.62,12.884 C 52.71,75.174 52,78.429 52,81.999 v 108 c 0,3.23 0.71,6.31 1.991,9.09 2.189,4.8 6.005,8.46 10.565,10.661 2.609,1.279 5.455,1.75 8.375,1.75 h 28.05 c 2.5,0 4.5,-0.5 5.88,-1.75 l 0.13,0.004 c 1.299,-1.24 2.009,-2.814 2.009,-4.755 v -17 c 0,-1.45 -0.719,-2.499 -1.788,-3.499 H 107 v -0.731 c -1,-1.069 -2.568,-1.269 -4.019,-1.269 h -9 C 87.981,182.5 82,175.999 82,169.999 v -56 c 0,-8 6.981,-14.499 13.981,-14.499 h 209 c 8,0 15.019,6.499 15.019,14.499 v 56 c 0,6 -6.019,12.501 -12.019,12.501 h -9 c -1.45,0 -2.981,0.199 -3.981,1.269 v 0.731 h -0.249 c -1.069,1 -1.751,2.049 -1.751,3.499 v 17.08 c 0,1.91 0.71,3.58 1.991,4.8 l 0.114,-0.129 c 1.371,1.24 3.336,1.75 5.806,1.75 h 28.07 c 2.94,0 5.81,-0.461 8.43,-1.75 4.561,-2.201 8.389,-5.986 10.58,-10.786 1.279,-2.78 2.009,-5.734 2.009,-8.965 V 81.949 c 0,-3.55 -0.739,-6.91 -2.009,-9.94 z M 348,189.999 c 0,11 -9.019,19.501 -19.019,19.501 h -28 c -3,0 -5.981,-1.501 -5.981,-4.501 v -17 c 0,-2 1.981,-3.499 3.981,-3.499 h 9 c 2.78,0 5.31,-0.971 7.44,-2.25 1.869,-1.131 3.438,-2.816 4.569,-4.686 1.279,-2.131 2.009,-4.785 2.009,-7.565 v -56.05 c 0,-3.16 -0.729,-6.02 -2.009,-8.45 -1.471,-2.8 -3.706,-4.78 -6.505,-6.25 -2.43,-1.28 -5.295,-1.75 -8.455,-1.75 H 95.981 c -2.86,0 -5.52,0.459 -7.82,1.75 -2.609,1.46 -4.74,3.544 -6.17,6.315 -1.281,2.45 -1.991,5.225 -1.991,8.435 v 56.06 c 0,2.761 0.722,5.271 1.991,7.381 1.129,1.869 2.685,3.68 4.554,4.811 2.111,1.27 4.616,1.25 7.377,2.25 h 9.06 c 2,0 4.019,1.499 4.019,3.499 v 17 c 0,3 -3.019,4.501 -6.019,4.501 h -28 C 62.982,209.501 54.001,201 54.001,190 V 82 c 0,-13 9.981,-22.499 21.981,-22.499 h 250 c 12,0 22.019,9.499 22.019,22.499 v 107.999 z"
         id="path4601"
         inkscape:connector-curvature="0"
         style="fill:#3b3d45" /></g><g
       id="g4607"><path
         d="m 107.212,183.999 h -0.23 v -0.23 c 0.089,0.07 0.16,0.14 0.23,0.23 z"
         id="path4605"
         inkscape:connector-curvature="0"
         style="fill:#ffffff" /></g><path
       d="m 294.991,128.959 c -0.5,-0.78 -1.185,-1.209 -1.966,-1.709 -0.91,-0.621 -1.954,-0.75 -2.994,-0.75 h -178.05 c -1.06,0 -2.12,0.119 -3.04,0.75 -0.78,0.5 -1.45,1.054 -1.95,1.834 -0.631,0.92 -0.991,1.855 -0.991,2.915 v 16.05 c 0,1.04 0.37,2.08 0.991,2.99 0.5,0.78 1.175,1.711 1.954,2.211 0.91,0.619 1.946,0.25 2.986,1.25 h 52.05 c 5,0 9.019,3.499 9.019,8.499 v 44.04 c 0,1.21 0.36,2.33 0.991,3.27 0.439,0.671 1.015,1 1.685,1.441 0.939,0.629 2.056,0.75 3.266,0.75 h 45.04 c 1.13,0 2.17,-0.121 3,-0.75 0.38,-0.291 0.719,-0.496 1.01,-0.876 0.629,-0.83 1.009,-1.745 1.009,-2.875 v -45 c 0,-5 3.981,-8.499 7.981,-8.499 h 53 c 1.06,0 2.12,-0.621 3.04,-1.25 0.78,-0.5 1.47,-1.306 1.97,-2.086 0.629,-0.92 1.009,-2.105 1.009,-3.165 v -16.05 c -10e-4,-1.04 -0.391,-2.08 -1.01,-2.99 z m 0.009,19.04 c 0,3 -2.019,5.501 -5.019,5.501 h -53 c -1.48,0 -2.87,0.1 -4.1,0.75 -1.681,0.889 -3.031,2.204 -3.891,4.074 -0.641,1.38 -0.991,2.875 -0.991,4.675 v 45 c 0,2.21 -1.809,3.501 -4.019,3.501 h -45 c -2.76,0 -4.981,-1.741 -4.981,-4.501 v -44.03 c 0,-1.77 -0.358,-3.359 -1.009,-4.72 -0.891,-1.89 -2.366,-3.11 -4.255,-3.999 -1.361,-0.65 -2.955,-0.75 -4.725,-0.75 h -52.03 c -3,0 -4.981,-2.501 -4.981,-5.501 v -16 c 0,-3 1.981,-4.499 4.981,-4.499 h 178 c 3,0 5.019,1.499 5.019,4.499 v 16 z"
       id="path4609"
       inkscape:connector-curvature="0"
       style="fill:#3b3d45" /><g
       id="g4613"><path
         d="m 294.981,183.769 v 0.23 h -0.23 c 0.07,-0.09 0.141,-0.16 0.23,-0.23 z"
         id="path4611"
         inkscape:connector-curvature="0"
         style="fill:#ffffff" /></g></g><text
     xml:space="preserve"
     style="font-style:normal;font-weight:normal;font-size:40px;line-height:125%;font-family:sans-serif;text-align:center;letter-spacing:0px;word-spacing:0px;text-anchor:middle;fill:#ffffff;fill-opacity:1;stroke:none;stroke-width:1px;stroke-linecap:butt;stroke-linejoin:miter;stroke-opacity:1"
     x="148.76091"
     y="110.87122"
     id="text4626"><tspan
       sodipodi:role="line"
       id="brake-pad"
       x="148.76091"
       y="110.87122"
       style="font-size:26.33333397px"> </tspan></text>
<text
     xml:space="preserve"
     style="font-style:normal;font-weight:normal;font-size:40px;line-height:125%;font-family:sans-serif;text-align:center;letter-spacing:0px;word-spacing:0px;text-anchor:middle;fill:#cccccc;fill-opacity:1;stroke:none;stroke-width:1px;stroke-linecap:butt;stroke-linejoin:miter;stroke-opacity:1"
     x="149.38861"
     y="131.89859"
     id="text4630"><tspan
       sodipodi:role="line"
       id="tspan4628"
       x="149.38861"
       y="131.89859"
       style="font-size:16px;fill:#cccccc">mm</tspan></text>
</svg>