<?xml version="1.0" encoding="utf-8"?>
<!-- Generator: Adobe Illustrator 16.0.0, SVG Export Plug-In . SVG Version: 6.00 Build 0)  -->
<!DOCTYPE svg PUBLIC "-//W3C//DTD SVG 1.1//EN" "http://www.w3.org/Graphics/SVG/1.1/DTD/svg11.dtd">
<svg version="1.1" xmlns="http://www.w3.org/2000/svg" xmlns:xlink="http://www.w3.org/1999/xlink" x="0px" y="0px" width="424px"
	 height="265.067px" viewBox="0 0 424 265.067" enable-background="new 0 0 424 265.067" xml:space="preserve">
<g id="Layer_1">
</g>
<g id="Layer_2">
	<path fill="#FFFFFF" d="M303.027,63.496c-0.386-1.238-1.776-1.462-3.469-1.462h-31.76c-4.516,0-8.178,0.609-10.215,1.462
		l-0.014-0.274l-1.652,0.82L31.923,195.274l-2.271,1.301c-0.014,0.014-0.041,0.009-0.056,0.009c-3.345,2.065-5.712,3.901-5.3,5.36
		c0.042,0.124-0.047,1.859,3.298,2.009c0,0,3.998,0.031,4.054,0.031l25.496,0.042c0,0,5.796,0.029,5.904,0.015
		c0.07,0,2.402,0.003,5.865-1.542c0.262-0.11,228.14-133.178,228.14-133.178c0.578-0.33,1.114-0.226,1.61-0.528
		c0.097-0.055,0.179,0.24,0.275,0.24h0.014c0.042,0,0.084-0.489,0.124-0.502c0.138-0.096,0.262-0.39,0.386-0.458
		c1.143-0.757,1.996-1.249,2.588-1.882C303.027,65.158,303.303,64.417,303.027,63.496z M297.273,66.458
		c-0.028,0-1.02,0.351-1.57,0.667L72.424,197.747c-0.014,0.013-0.028-0.048-0.042-0.033c-3.923,2.284-7.275,3.849-10.803,3.677
		c0,0-28.365-0.252-29.527-0.252c-1.161,0-6.238,0.743,0.325-2.995C32.673,197.975,258.313,66.39,258.313,66.39
		c1.693-0.717,5.424-1.357,9.485-1.357h27.904C296.929,65.033,300.38,64.293,297.273,66.458z"/>
	<path fill="#FFFFFF" d="M427.399,63.496c-0.387-1.238-1.776-1.462-3.469-1.462h-31.76c-4.516,0-8.178,0.609-10.215,1.462
		l-0.014-0.274l-1.652,0.82L156.295,195.274l-2.272,1.301c-0.014,0.014-0.04,0.009-0.055,0.009c-3.345,2.065-5.713,3.901-5.3,5.36
		c0.042,0.124-0.047,1.859,3.298,2.009c0,0,3.998,0.031,4.054,0.031l25.496,0.042c0,0,5.796,0.029,5.904,0.015
		c0.07,0,2.402,0.003,5.866-1.542c0.26-0.11,228.139-133.178,228.139-133.178c0.578-0.33,1.114-0.226,1.61-0.528
		c0.097-0.055,0.179,0.24,0.275,0.24h0.014c0.042,0,0.083-0.489,0.124-0.502c0.139-0.096,0.262-0.39,0.386-0.458
		c1.143-0.757,1.996-1.249,2.588-1.882C427.399,65.158,427.675,64.417,427.399,63.496z M421.646,66.458
		c-0.028,0-1.02,0.351-1.57,0.667L196.796,197.747c-0.014,0.013-0.028-0.048-0.042-0.033c-3.923,2.284-7.275,3.849-10.804,3.677
		c0,0-28.365-0.252-29.526-0.252s-6.238,0.743,0.325-2.995c0.296-0.168,225.938-131.753,225.938-131.753
		c1.692-0.717,5.423-1.357,9.484-1.357h27.904C421.301,65.033,424.752,64.293,421.646,66.458z"/>
</g>
</svg>
