<?xml version="1.0" encoding="UTF-8" standalone="no"?>
<!-- Generator: Adobe Illustrator 16.0.0, SVG Export Plug-In . SVG Version: 6.00 Build 0)  -->

<svg
   xmlns:dc="http://purl.org/dc/elements/1.1/"
   xmlns:cc="http://creativecommons.org/ns#"
   xmlns:rdf="http://www.w3.org/1999/02/22-rdf-syntax-ns#"
   xmlns:svg="http://www.w3.org/2000/svg"
   xmlns="http://www.w3.org/2000/svg"
   xmlns:sodipodi="http://sodipodi.sourceforge.net/DTD/sodipodi-0.dtd"
   xmlns:inkscape="http://www.inkscape.org/namespaces/inkscape"
   version="1.1"
   x="0px"
   y="0px"
   width="442.40024"
   height="173.89024"
   viewBox="0 0 442.40023 173.89025"
   enable-background="new 0 0 434.333 265.067"
   xml:space="preserve"
   id="svg4604"
   sodipodi:docname="levitation.svg"
   inkscape:version="0.92.1 r15371"><metadata
     id="metadata4610"><rdf:RDF><cc:Work
         rdf:about=""><dc:format>image/svg+xml</dc:format><dc:type
           rdf:resource="http://purl.org/dc/dcmitype/StillImage" /><dc:title></dc:title></cc:Work></rdf:RDF></metadata><defs
     id="defs4608" /><sodipodi:namedview
     pagecolor="#ffffff"
     bordercolor="#666666"
     borderopacity="1"
     objecttolerance="10"
     gridtolerance="10"
     guidetolerance="10"
     inkscape:pageopacity="0"
     inkscape:pageshadow="2"
     inkscape:window-width="1920"
     inkscape:window-height="1050"
     id="namedview4606"
     showgrid="false"
     fit-margin-top="0"
     fit-margin-left="0"
     fit-margin-right="0"
     fit-margin-bottom="0"
     inkscape:zoom="2.8284271"
     inkscape:cx="194.8156"
     inkscape:cy="84.459123"
     inkscape:window-x="0"
     inkscape:window-y="30"
     inkscape:window-maximized="1"
     inkscape:current-layer="Layer_2"
     showguides="false" /><g
     id="Layer_1"
     transform="translate(-24.249428,-62.034)" /><g
     id="Layer_2"
     transform="translate(-24.249428,-62.034)"><line
       stroke-miterlimit="10"
       x1="392.5"
       y1="72.032997"
       x2="392.5"
       y2="113.033"
       id="line4589"
       style="fill:none;stroke:#da463e;stroke-width:1.75748026;stroke-linecap:round;stroke-miterlimit:10;stroke-dasharray:1.75748031, 7.02992126;stroke-dashoffset:0;stroke-opacity:1" /><path
       d="m 303.027,63.496 c -0.386,-1.238 -1.776,-1.462 -3.469,-1.462 h -31.76 c -4.516,0 -8.178,0.609 -10.215,1.462 l -0.014,-0.274 -1.652,0.82 -223.994,131.232 -2.271,1.301 c -0.014,0.014 -0.041,0.009 -0.056,0.009 -3.345,2.065 -5.712,3.901 -5.3,5.36 0.042,0.124 -0.047,1.859 3.298,2.009 0,0 3.998,0.031 4.054,0.031 l 25.496,0.042 c 0,0 5.796,0.029 5.904,0.015 0.07,0 2.402,0.003 5.865,-1.542 0.262,-0.11 228.14,-133.178 228.14,-133.178 0.578,-0.33 1.114,-0.226 1.61,-0.528 0.097,-0.055 0.179,0.24 0.275,0.24 h 0.014 c 0.042,0 0.084,-0.489 0.124,-0.502 0.138,-0.096 0.262,-0.39 0.386,-0.458 1.143,-0.757 1.996,-1.249 2.588,-1.882 0.977,-1.033 1.253,-1.774 0.977,-2.695 z m -5.754,2.962 c -0.028,0 -1.02,0.351 -1.57,0.667 L 72.424,197.747 c -0.014,0.013 -0.028,-0.048 -0.042,-0.033 -3.923,2.284 -7.275,3.849 -10.803,3.677 0,0 -28.365,-0.252 -29.527,-0.252 -1.161,0 -6.238,0.743 0.325,-2.995 0.296,-0.169 225.936,-131.754 225.936,-131.754 1.693,-0.717 5.424,-1.357 9.485,-1.357 h 27.904 c 1.227,0 4.678,-0.74 1.571,1.425 z"
       id="path4591"
       inkscape:connector-curvature="0"
       style="fill:#3b3d45" /><circle
       cx="56.5"
       cy="234.033"
       r="1.8329999"
       id="circle4593"
       style="fill:#da463e;fill-opacity:1" /><circle
       cx="270.5"
       cy="113.033"
       r="1.8329999"
       id="circle4595"
       style="fill:#da463e;fill-opacity:1" /><circle
       cx="178.5"
       cy="234.033"
       r="1.8329999"
       id="circle4599"
       style="fill:#da463e;fill-opacity:1" /><path
       d="m 427.399,63.496 c -0.387,-1.238 -1.776,-1.462 -3.469,-1.462 h -31.76 c -4.516,0 -8.178,0.609 -10.215,1.462 l -0.014,-0.274 -1.652,0.82 -223.994,131.232 -2.272,1.301 c -0.014,0.014 -0.04,0.009 -0.055,0.009 -3.345,2.065 -5.713,3.901 -5.3,5.36 0.042,0.124 -0.047,1.859 3.298,2.009 0,0 3.998,0.031 4.054,0.031 l 25.496,0.042 c 0,0 5.796,0.029 5.904,0.015 0.07,0 2.402,0.003 5.866,-1.542 0.26,-0.11 228.139,-133.178 228.139,-133.178 0.578,-0.33 1.114,-0.226 1.61,-0.528 0.097,-0.055 0.179,0.24 0.275,0.24 h 0.014 c 0.042,0 0.083,-0.489 0.124,-0.502 0.139,-0.096 0.262,-0.39 0.386,-0.458 1.143,-0.757 1.996,-1.249 2.588,-1.882 0.977,-1.033 1.253,-1.774 0.977,-2.695 z m -5.753,2.962 c -0.028,0 -1.02,0.351 -1.57,0.667 l -223.28,130.622 c -0.014,0.013 -0.028,-0.048 -0.042,-0.033 -3.923,2.284 -7.275,3.849 -10.804,3.677 0,0 -28.365,-0.252 -29.526,-0.252 -1.161,0 -6.238,0.743 0.325,-2.995 0.296,-0.168 225.938,-131.753 225.938,-131.753 1.692,-0.717 5.423,-1.357 9.484,-1.357 h 27.904 c 1.226,-0.001 4.677,-0.741 1.571,1.424 z"
       id="path4601"
       inkscape:connector-curvature="0"
       style="fill:#3b3d45" /><line
       style="fill:none;stroke:#da463e;stroke-width:1.75748026;stroke-linecap:round;stroke-miterlimit:10;stroke-dasharray:1.75748031, 7.02992126;stroke-dashoffset:0;stroke-opacity:1"
       id="line4612"
       y2="113.033"
       x2="270.5"
       y1="72.032997"
       x1="270.5"
       stroke-miterlimit="10" /><line
       stroke-miterlimit="10"
       x1="178.5"
       y1="194.03299"
       x2="178.5"
       y2="235.03299"
       id="line4614"
       style="fill:none;stroke:#da463e;stroke-width:1.75748026;stroke-linecap:round;stroke-miterlimit:10;stroke-dasharray:1.75748031, 7.02992126;stroke-dashoffset:0;stroke-opacity:1" /><line
       style="fill:none;stroke:#da463e;stroke-width:1.75748026;stroke-linecap:round;stroke-miterlimit:10;stroke-dasharray:1.75748031, 7.02992126;stroke-dashoffset:0;stroke-opacity:1"
       id="line4616"
       y2="235.03299"
       x2="56.5"
       y1="194.03299"
       x1="56.5"
       stroke-miterlimit="10" /><circle
       style="fill:#da463e;fill-opacity:1"
       id="circle4618"
       r="1.8329999"
       cy="113.033"
       cx="392.5" /><text
       xml:space="preserve"
       style="font-style:normal;font-weight:normal;font-size:26.66666603px;line-height:125%;font-family:sans-serif;text-align:center;letter-spacing:0px;word-spacing:0px;text-anchor:middle;fill:#000000;fill-opacity:1;stroke:none;stroke-width:1px;stroke-linecap:butt;stroke-linejoin:miter;stroke-opacity:1"
       x="69.169289"
       y="227.42468"
       id="text4624"><tspan
         sodipodi:role="line"
         id="tspan4622"
         x="69.169289"
         y="251.01843" /></text>
<text
       xml:space="preserve"
       style="font-style:normal;font-weight:normal;font-size:26.66666603px;line-height:125%;font-family:sans-serif;text-align:center;letter-spacing:0px;word-spacing:0px;text-anchor:middle;fill:#ffffff;fill-opacity:1;stroke:none;stroke-width:1px;stroke-linecap:butt;stroke-linejoin:miter;stroke-opacity:1"
       x="78.343094"
       y="224.90585"
       id="text4628"><tspan
         sodipodi:role="line"
         id="lev1"
         x="78.343094"
         y="224.90585"
         style="font-size:26.66666603px;fill:#ffffff">12</tspan></text>
<text
       xml:space="preserve"
       style="font-style:normal;font-weight:normal;font-size:26.66666603px;line-height:125%;font-family:sans-serif;text-align:center;letter-spacing:0px;word-spacing:0px;text-anchor:middle;fill:#cccccc;fill-opacity:1;stroke:none;stroke-width:1px;stroke-linecap:butt;stroke-linejoin:miter;stroke-opacity:1"
       x="114.05199"
       y="224.55229"
       id="text4632"><tspan
         sodipodi:role="line"
         id="tspan4630"
         x="114.05199"
         y="224.55229"
         style="font-size:18.66666603px;fill:#cccccc">mm</tspan></text>
<text
       id="text4636"
       y="224.90585"
       x="198.34308"
       style="font-style:normal;font-weight:normal;font-size:26.66666603px;line-height:125%;font-family:sans-serif;text-align:center;letter-spacing:0px;word-spacing:0px;text-anchor:middle;fill:#ffffff;fill-opacity:1;stroke:none;stroke-width:1px;stroke-linecap:butt;stroke-linejoin:miter;stroke-opacity:1"
       xml:space="preserve"><tspan
         style="font-size:26.66666603px;fill:#ffffff"
         y="224.90585"
         x="198.34308"
         id="lev2"
         sodipodi:role="line">12</tspan></text>
<text
       id="text4640"
       y="224.55229"
       x="234.05199"
       style="font-style:normal;font-weight:normal;font-size:26.66666603px;line-height:125%;font-family:sans-serif;text-align:center;letter-spacing:0px;word-spacing:0px;text-anchor:middle;fill:#cccccc;fill-opacity:1;stroke:none;stroke-width:1px;stroke-linecap:butt;stroke-linejoin:miter;stroke-opacity:1"
       xml:space="preserve"><tspan
         style="font-size:18.66666603px;fill:#cccccc"
         y="224.55229"
         x="234.05199"
         id="tspan4638"
         sodipodi:role="line">mm</tspan></text>
<text
       xml:space="preserve"
       style="font-style:normal;font-weight:normal;font-size:26.66666603px;line-height:125%;font-family:sans-serif;text-align:center;letter-spacing:0px;word-spacing:0px;text-anchor:middle;fill:#ffffff;fill-opacity:1;stroke:none;stroke-width:1px;stroke-linecap:butt;stroke-linejoin:miter;stroke-opacity:1"
       x="294.34308"
       y="102.90585"
       id="text4644"><tspan
         sodipodi:role="line"
         id="lev3"
         x="294.34308"
         y="102.90585"
         style="font-size:26.66666603px;fill:#ffffff">12</tspan></text>
<text
       xml:space="preserve"
       style="font-style:normal;font-weight:normal;font-size:26.66666603px;line-height:125%;font-family:sans-serif;text-align:center;letter-spacing:0px;word-spacing:0px;text-anchor:middle;fill:#cccccc;fill-opacity:1;stroke:none;stroke-width:1px;stroke-linecap:butt;stroke-linejoin:miter;stroke-opacity:1"
       x="330.052"
       y="102.55229"
       id="text4648"><tspan
         sodipodi:role="line"
         id="tspan4646"
         x="330.052"
         y="102.55229"
         style="font-size:18.66666603px;fill:#cccccc">mm</tspan></text>
<text
       id="text4652"
       y="106.90585"
       x="414.34308"
       style="font-style:normal;font-weight:normal;font-size:26.66666603px;line-height:125%;font-family:sans-serif;text-align:center;letter-spacing:0px;word-spacing:0px;text-anchor:middle;fill:#ffffff;fill-opacity:1;stroke:none;stroke-width:1px;stroke-linecap:butt;stroke-linejoin:miter;stroke-opacity:1"
       xml:space="preserve"><tspan
         style="font-size:26.66666603px;fill:#ffffff"
         y="106.90585"
         x="414.34308"
         id="lev4"
         sodipodi:role="line">12</tspan></text>
<text
       id="text4656"
       y="106.55229"
       x="450.052"
       style="font-style:normal;font-weight:normal;font-size:26.66666603px;line-height:125%;font-family:sans-serif;text-align:center;letter-spacing:0px;word-spacing:0px;text-anchor:middle;fill:#cccccc;fill-opacity:1;stroke:none;stroke-width:1px;stroke-linecap:butt;stroke-linejoin:miter;stroke-opacity:1"
       xml:space="preserve"><tspan
         style="font-size:18.66666603px;fill:#cccccc"
         y="106.55229"
         x="450.052"
         id="tspan4654"
         sodipodi:role="line">mm</tspan></text>
</g></svg>